<svg
    xmlns="http://www.w3.org/2000/svg"
    xmlns:xlink="http://www.w3.org/1999/xlink"
    viewBox="0 0 1060 420"
>
    <symbol
        id="typography"
        viewBox="382.38 104.85 668.11 306.3"
    >
        <g>
            <path
                d="M434.2,189.2h-46.5v-43.6h37.9v37.1h4.6c1.1-32.1,12.2-39,31.6-39s28.7,10.7,28.7,38.3v23.7c0,9.4,1,10.5,3.3,10.5s3.6-2.3,3.4-20.3h6.1c.4,7.1.6,13.4.6,18.7,0,26.2-4,36.9-23.5,36.9s-26-12.1-26-37.1h-5.4c-1.3,27.2-11.1,37.3-34.4,37.3s-32.1-10.9-32.1-26.8,11.3-27.7,35.8-27.7,29.5-1,29.5-7.8v-1.9c0-5.2-1.3-8-5.9-8s-7.1,3.4-7.5,9.8ZM424.7,132.2c18.6-9.4,32.9-20.5,40.2-27.4l4.6,6.3c-7.8,6.5-23.3,17.4-42.1,26.6l-2.7-5.5ZM447.6,201.8v-1.9c-8.4,3.1-20.3,2.9-20.3,10.7s2.3,5.5,8,5.5,12.2-1.5,12.2-14.3Z"/>
            <path
                d="M555.3,145.6h22.6v36.9h-22.6v19.9c0,7.3,2.1,10.1,7.5,10.1s8.6-4.6,8.4-21.2h6.1c.2,3.8.2,7.7.2,14,0,34.2-9.4,46.5-31,46.5s-32.5-5.5-32.5-33.9v-35.4h-7.8v-30.8c19.3,0,38.8-14.2,43.2-28.9h5.9v22.8Z"/>
            <path
                d="M646,251.8c-37.7,0-59.9-14.3-59.9-54.9s18-53.2,56.6-53.2,51.6,18.6,51.6,42.7,0,9.6-.2,14.3c-6.9.2-47.1,0-65.4,0,1.9,12.6,9.8,16.1,24.3,16.1s21-3.6,20.7-9.6h20.5c0,28.1-12.4,44.6-48.2,44.6ZM628.4,193.2h27.2c-.2-15.3-5.2-18.2-13.2-18.2s-14,5.2-14,18.2Z"/>
            <path
                d="M808,201.6c0,8.4,1.3,11.1,8.8,11.1v37.1h-43.6v-37.5h-4.6c-2.3,28.1-10.9,39.4-33.1,39.4s-33.7-15.1-33.7-50.1,9.4-58,30.4-58,26.4,7.1,30.2,27.5h4.8v-13.2c0-8-1.9-11.5-12.4-11.5v-24.9h53.2v80ZM767.2,200.9v-22.2c-2.9-1.1-6.7-1.5-10.7-1.5-10.5,0-13.4,3.3-13.4,20.7s4.8,15.9,12.6,15.9,11.5-4,11.5-12.8Z"/>
            <path
                d="M904.2,187.9c-27,0-31,3.3-31,14.5v2.7c0,5.4,2.7,7.7,19.7,7.7v37.1h-69.1v-37.1c7.5,0,8.6-3.4,8.6-11.5v-7.3c0-8.8-1.1-11.5-8.6-11.5v-36.9h43.6v45h4.2c2.1-40.2,9.4-46.7,32.5-46.7v44Z"/>
            <path
                d="M959.6,189.2h-46.5v-43.6h37.9v37.1h4.6c1.1-32.1,12.2-39,31.6-39s28.7,10.7,28.7,38.3v23.7c0,9.4,1,10.5,3.3,10.5s3.6-2.3,3.4-20.3h6.1c.4,7.1.6,13.4.6,18.7,0,26.2-4,36.9-23.5,36.9s-26-12.1-26-37.1h-5.4c-1.3,27.2-11.1,37.3-34.4,37.3s-32.1-10.9-32.1-26.8,11.3-27.7,35.8-27.7,29.5-1,29.5-7.8v-1.9c0-5.2-1.3-8-5.9-8s-7.1,3.4-7.5,9.8ZM973,201.8v-1.9c-8.4,3.1-20.3,2.9-20.3,10.7s2.3,5.5,8,5.5,12.2-1.5,12.2-14.3Z"/>
        </g>
        <g>
            <path
                d="M469.8,348.6h-46.5v-43.6h37.9v37.1h4.6c1.1-32.1,12.2-39,31.6-39s28.7,10.7,28.7,38.3v23.7c0,9.4,1,10.5,3.3,10.5s3.6-2.3,3.4-20.3h6.1c.4,7.1.6,13.4.6,18.7,0,26.2-4,36.9-23.5,36.9s-26-12.1-26-37.1h-5.4c-1.3,27.2-11.1,37.3-34.4,37.3s-32.1-10.9-32.1-26.8,11.3-27.7,35.8-27.7,29.5-1,29.5-7.8v-1.9c0-5.2-1.3-8-5.9-8s-7.1,3.4-7.5,9.8ZM483.2,361.2v-1.9c-8.4,3.1-20.3,2.9-20.3,10.7s2.3,5.5,8,5.5,12.2-1.5,12.2-14.3Z"/>
            <path
                d="M626.5,347.3c-27,0-31,3.3-31,14.5v2.7c0,5.4,2.7,7.7,19.7,7.7v37.1h-69.1v-37.1c7.5,0,8.6-3.4,8.6-11.5v-7.3c0-8.8-1.1-11.5-8.6-11.5v-36.9h43.6v45h4.2c2.1-40.2,9.4-46.7,32.5-46.7v44Z"/>
            <path
                d="M675.6,353.6c0,13.8,8.2,17.6,24.1,17.6s18.2-1.9,18.7-12.2h21.2c0,31.6-11.9,52.2-48.8,52.2s-57.8-12.1-57.8-54.9,8.8-53.2,35.4-53.2,25.6,7.3,29.1,41.5h5.7v-39.6h36.2v46.5h-44.6c-1.7-7.8-5.2-9.9-9.4-9.9-6.7,0-9.9,4.4-9.9,12.1Z"/>
            <path
                d="M808.4,411.2c-37.7,0-59.9-14.3-59.9-54.9s18-53.2,56.6-53.2,51.6,18.6,51.6,42.7,0,9.6-.2,14.3c-6.9.2-47.1,0-65.4,0,1.9,12.6,9.8,16.1,24.3,16.1s21-3.6,20.7-9.6h20.5c0,28.1-12.4,44.6-48.2,44.6ZM790.8,352.6h27.2c-.2-15.3-5.2-18.2-13.2-18.2s-14,5.2-14,18.2Z"/>
            <path
                d="M915.1,360.6c0,8,1.3,11.5,8.4,11.5v37.1h-58.9v-37.1c7.7,0,9.2-3.4,9.2-11.5v-31c0-8.8-1.5-11.5-9-11.5v-37.1h50.3v79.6Z"/>
            <path
                d="M980.9,348.6h-46.5v-43.6h37.9v37.1h4.6c1.1-32.1,12.2-39,31.6-39s28.7,10.7,28.7,38.3v23.7c0,9.4,1,10.5,3.3,10.5s3.6-2.3,3.4-20.3h6.1c.4,7.1.6,13.4.6,18.7,0,26.2-4,36.9-23.5,36.9s-26-12.1-26-37.1h-5.4c-1.3,27.2-11.1,37.3-34.4,37.3s-32.1-10.9-32.1-26.8,11.3-27.7,35.8-27.7,29.5-1,29.5-7.8v-1.9c0-5.2-1.3-8-5.9-8s-7.1,3.4-7.5,9.8ZM994.3,361.2v-1.9c-8.4,3.1-20.3,2.9-20.3,10.7s2.3,5.5,8,5.5,12.2-1.5,12.2-14.3Z"/>
        </g>
    </symbol>

    <symbol id="icon" viewBox="9.5 8.85 400.25 400.38">
        <g>
            <g>
                <rect x="49.5" y="348.8" width="20" height="20"/>
                <rect x="49.5" y="48.8" width="182" height="20"/>
                <rect x="49.5" y="78.8" width="120" height="20"/>
                <rect x="49.5" y="308.8" width="182" height="20"/>
                <rect x="49.5" y="278.8" width="182" height="20"/>
                <rect x="49.5" y="248.8" width="182" height="20"/>
                <rect x="49.5" y="218.8" width="182" height="20"/>
                <rect x="49.5" y="188.8" width="182" height="20"/>
                <rect x="49.5" y="158.8" width="182" height="20"/>
                <rect x="49.5" y="128.8" width="182" height="20"/>
            </g>
            <path
                d="M298.2,186.7c0,14.5,6.1,19.9,25.4,19.9s26.2-2.9,26.6-15.7h24.9c1,36.5-13.8,60.8-60.4,60.8s-64.7-14-64.7-62.6,11.3-62,42.5-62,30.6,8.2,32.9,47.8h6.3v-45.7h43.4v53.8h-53.6c-1.7-10.3-6.3-13.4-11.5-13.4-8.4,0-11.9,6.1-11.9,17Z"/>
            <path
                d="M295,409.2h-43.4v-38.6c7.5-1.5,12.4-6.3,12.4-23.1v-9.2c0-10.5,0-11.1-12.4-11.1v-38.4h70v31.2c0,7.1,1.5,13,5.7,18.7l6.3,8.8,6.1-8.6c3.1-4.2,5.7-10.7,5.7-19.3v-30.8h64.3v38.1c-12.4,0-12.2.6-12.2,11.1v21.4c0,10.7-.2,11.3,12.2,11.3v38.6h-81.1v-38.6c19.1,0,26.2-3.8,26.2-11.3v-30.8l-40.6,54.5h-6.5l-36.3-54.7v19.1c0,16.8,6.5,22.8,23.5,23.1v38.6Z"/>
            <polygon
                points="231.5 388.8 29.5 388.8 29.5 28.8 389.5 28.8 389.5 128.8 409.5 128.8 409.5 8.8 9.5 8.8 9.5 408.8 231.5 408.8 231.5 388.8"/>
        </g>
    </symbol>

    <symbol id="landscape" viewBox="0 0 1060 420">
        <use xlink:href="#icon" x="9.5" y="8.85" width="400" height="400"/>
        <use xlink:href="#typography" x="382" y="105" width="668" height="306"/>
    </symbol>

    <use xlink:href="#landscape" x="2%" y="2%" width="96%" height="96%"/>
</svg>
